{"title":"Jack Reacher 2012 CAM XviD-OCW","uid":7960828,"size":1475042788,"categoryP":"video","categoryS":"movies","magnet":"?xt=urn:btih:6e60f5727c47c216cc40c3fcae1354534d878484&amp;dn=Jack+Reacher+2012+CAM+XviD-OCW&amp;tr=udp%3A%2F%2Ftracker.openbittorrent.com%3A80&amp;tr=udp%3A%2F%2Fopen.demonii.com%3A1337&amp;tr=udp%3A%2F%2Ftracker.coppersurfer.tk%3A6969&amp;tr=udp%3A%2F%2Fexodus.desync.com%3A6969","seeders":10,"leechers":0,"uploader":"srkfan","files":3,"time":1356579764,"description":" &lt;a href=&quot;http://www.silvertorrent.org&quot; rel=&quot;nofollow&quot; target=&quot;_NEW&quot;&gt;http://www.silvertorrent.org&lt;/a&gt; &lt;a href=&quot;\nhttp://silvertorrent.org/index.php?page=torrent-details&amp;id=6e60f5727c47c216cc40c3fcae1354534d878484&quot; rel=&quot;nofollow&quot; target=&quot;_NEW&quot;&gt;\nhttp://silvertorrent.org/index.php?page=torrent-details&amp;id=6e60f5727c47c216cc40c3fcae1354534d878484&lt;/a&gt; &lt;a href=&quot;\nhttp://www.shotpix.com/images/08096634903738710469.png&quot; rel=&quot;nofollow&quot; target=&quot;_NEW&quot;&gt;\nhttp://www.shotpix.com/images/08096634903738710469.png&lt;/a&gt; &lt;a href=&quot;\nhttp://imageshack.us/a/img607/1776/jackreacherposter.jpg&quot; rel=&quot;nofollow&quot; target=&quot;_NEW&quot;&gt;\nhttp://imageshack.us/a/img607/1776/jackreacherposter.jpg&lt;/a&gt;\n\nGenre: Action | Crime | Thriller\nIMDb Rating: 7.3/10 from 6,346 users\n\n\nFile size                                : 1.37 GiB\nDuration                                 : 2h 4mn\nOverall bit rate                         : 1 575 Kbps\nWriting library                          : VirtualDub build 32842/release\n\n\nVideo\nID                                       : 0\nFormat                                   : MPEG-4 Visual\nFormat profile                           : Advanced Simple@L5\nFormat settings, BVOP                    : 2\nFormat settings, QPel                    : No\nFormat settings, GMC                     : No warppoints\nFormat settings, Matrix                  : Default (H.263)\nMuxing mode                              : Packed bitstream\nCodec ID                                 : XVID\nCodec ID/Hint                            : XviD\nDuration                                 : 2h 4mn\nBit rate                                 : 1 435 Kbps\nWidth                                    : 720 pixels\nHeight                                   : 336 pixels\nDisplay aspect ratio                     : 2.143\nFrame rate                               : 29.970 fps\nColor space                              : YUV\nChroma subsampling                       : 4:2:0\nBit depth                                : 8 bits\nScan type                                : Progressive\nCompression mode                         : Lossy\nBits/(Pixel*Frame)                       : 0.198\nStream size                              : 1.25 GiB (91%)\nWriting library                          : XviD 64\n\n\nAudio\nID                                       : 1\nFormat                                   : MPEG Audio\nFormat version                           : Version 1\nFormat profile                           : Layer 3\nCodec ID                                 : 55\nCodec ID/Hint                            : MP3\nDuration                                 : 2h 4mn\nBit rate mode                            : Constant\nBit rate                                 : 128 Kbps\nChannel(s)                               : 2 channels\nSampling rate                            : 48.0 KHz\nCompression mode                         : Lossy\nStream size                              : 114 MiB (8%)\nAlignment                                : Split accross interleaves\nInterleave, duration                     : 33 ms (1.00 video frame)\nWriting library                          : LAME3.98.4\n\n\n\nIMDB:  &lt;a href=&quot; http://www.imdb.com/title/tt0790724/&quot; rel=&quot;nofollow&quot; target=&quot;_NEW&quot;&gt; http://www.imdb.com/title/tt0790724/&lt;/a&gt; &lt;a href=&quot;\nhttp://silvertorrent.org/index.php?page=torrent-details&amp;id=6e60f5727c47c216cc40c3fcae1354534d878484&quot; rel=&quot;nofollow&quot; target=&quot;_NEW&quot;&gt;\nhttp://silvertorrent.org/index.php?page=torrent-details&amp;id=6e60f5727c47c216cc40c3fcae1354534d878484&lt;/a&gt; &lt;a href=&quot;\nhttp://piczend.com/img.php?image=6163_1_tbvq.png&quot; rel=&quot;nofollow&quot; target=&quot;_NEW&quot;&gt;\nhttp://piczend.com/img.php?image=6163_1_tbvq.png&lt;/a&gt;\nhttp://piczend.com/img.php?image=1550_5_5xwk.png\nhttp://piczend.com/img.php?image=2517_4_gnz0.png\nhttp://piczend.com/img.php?image=0363_3_1mpn.png\nhttp://piczend.com/img.php?image=5829_2_w3p9.png\n &lt;a href=&quot;\nhttp://silvertorrent.org/index.php?page=torrent-details&amp;id=6e60f5727c47c216cc40c3fcae1354534d878484&quot; rel=&quot;nofollow&quot; target=&quot;_NEW&quot;&gt;\nhttp://silvertorrent.org/index.php?page=torrent-details&amp;id=6e60f5727c47c216cc40c3fcae1354534d878484&lt;/a&gt;","torrent":{"xt":"urn:btih:6e60f5727c47c216cc40c3fcae1354534d878484","amp;dn":"Jack+Reacher+2012+CAM+XviD-OCW","amp;tr":["udp%3A%2F%2Ftracker.openbittorrent.com%3A80","udp%3A%2F%2Fopen.demonii.com%3A1337","udp%3A%2F%2Ftracker.coppersurfer.tk%3A6969","udp%3A%2F%2Fexodus.desync.com%3A6969"],"infoHash":"6e60f5727c47c216cc40c3fcae1354534d878484","infoHashBuffer":{"type":"Buffer","data":[110,96,245,114,124,71,194,22,204,64,195,252,174,19,84,83,77,135,132,132]},"announce":[],"urlList":[]}}